<mxfile host="app.diagrams.net" modified="2022-12-10T20:02:08.911Z" agent="5.0 (Windows NT 10.0; Win64; x64) AppleWebKit/537.36 (KHTML, like Gecko) Chrome/108.0.0.0 Safari/537.36 Edg/108.0.1462.42" version="20.6.1" etag="NcLsXQVJt9xU_-2p9vSY" type="github">
  <diagram id="MAolerLhYbZd-vD0LQnR" name="第 1 页">
    <mxGraphModel dx="1375" dy="762" grid="1" gridSize="10" guides="1" tooltips="1" connect="1" arrows="1" fold="1" page="1" pageScale="1" pageWidth="1169" pageHeight="827" math="0" shadow="0">
      <root>
        <mxCell id="0" />
        <mxCell id="1" parent="0" />
        <mxCell id="bOK-Grzy6zvgatFyXtkg-10" value="" style="shape=table;startSize=0;container=1;collapsible=0;childLayout=tableLayout;sketch=1;fontFamily=Comic Sans MS;fontSize=16;" vertex="1" parent="1">
          <mxGeometry x="70" y="600" width="970" height="410.34" as="geometry" />
        </mxCell>
        <mxCell id="bOK-Grzy6zvgatFyXtkg-11" value="" style="shape=tableRow;horizontal=0;startSize=0;swimlaneHead=0;swimlaneBody=0;top=0;left=0;bottom=0;right=0;collapsible=0;dropTarget=0;fillColor=none;points=[[0,0.5],[1,0.5]];portConstraint=eastwest;" vertex="1" parent="bOK-Grzy6zvgatFyXtkg-10">
          <mxGeometry width="970" height="29" as="geometry" />
        </mxCell>
        <mxCell id="bOK-Grzy6zvgatFyXtkg-12" value="&lt;font style=&quot;font-size: 16px;&quot; face=&quot;Comic Sans MS&quot;&gt;Name&lt;/font&gt;" style="shape=partialRectangle;html=1;whiteSpace=wrap;connectable=0;overflow=hidden;fillColor=none;top=0;left=0;bottom=0;right=0;pointerEvents=1;" vertex="1" parent="bOK-Grzy6zvgatFyXtkg-11">
          <mxGeometry width="138" height="29" as="geometry">
            <mxRectangle width="138" height="29" as="alternateBounds" />
          </mxGeometry>
        </mxCell>
        <mxCell id="bOK-Grzy6zvgatFyXtkg-13" value="&lt;font style=&quot;font-size: 16px;&quot; face=&quot;Comic Sans MS&quot;&gt;Type&lt;/font&gt;" style="shape=partialRectangle;html=1;whiteSpace=wrap;connectable=0;overflow=hidden;fillColor=none;top=0;left=0;bottom=0;right=0;pointerEvents=1;" vertex="1" parent="bOK-Grzy6zvgatFyXtkg-11">
          <mxGeometry x="138" width="139" height="29" as="geometry">
            <mxRectangle width="139" height="29" as="alternateBounds" />
          </mxGeometry>
        </mxCell>
        <mxCell id="bOK-Grzy6zvgatFyXtkg-14" value="Length" style="shape=partialRectangle;html=1;whiteSpace=wrap;connectable=0;overflow=hidden;fillColor=none;top=0;left=0;bottom=0;right=0;pointerEvents=1;fontSize=16;fontFamily=Comic Sans MS;" vertex="1" parent="bOK-Grzy6zvgatFyXtkg-11">
          <mxGeometry x="277" width="138" height="29" as="geometry">
            <mxRectangle width="138" height="29" as="alternateBounds" />
          </mxGeometry>
        </mxCell>
        <mxCell id="bOK-Grzy6zvgatFyXtkg-15" value="Decimals" style="shape=partialRectangle;html=1;whiteSpace=wrap;connectable=0;overflow=hidden;fillColor=none;top=0;left=0;bottom=0;right=0;pointerEvents=1;fontSize=16;fontFamily=Comic Sans MS;" vertex="1" parent="bOK-Grzy6zvgatFyXtkg-11">
          <mxGeometry x="415" width="140" height="29" as="geometry">
            <mxRectangle width="140" height="29" as="alternateBounds" />
          </mxGeometry>
        </mxCell>
        <mxCell id="bOK-Grzy6zvgatFyXtkg-16" value="Not Null" style="shape=partialRectangle;html=1;whiteSpace=wrap;connectable=0;overflow=hidden;fillColor=none;top=0;left=0;bottom=0;right=0;pointerEvents=1;fontSize=16;fontFamily=Comic Sans MS;" vertex="1" parent="bOK-Grzy6zvgatFyXtkg-11">
          <mxGeometry x="555" width="138" height="29" as="geometry">
            <mxRectangle width="138" height="29" as="alternateBounds" />
          </mxGeometry>
        </mxCell>
        <mxCell id="bOK-Grzy6zvgatFyXtkg-17" value="Virtual" style="shape=partialRectangle;html=1;whiteSpace=wrap;connectable=0;overflow=hidden;fillColor=none;top=0;left=0;bottom=0;right=0;pointerEvents=1;fontSize=16;fontFamily=Comic Sans MS;" vertex="1" parent="bOK-Grzy6zvgatFyXtkg-11">
          <mxGeometry x="693" width="139" height="29" as="geometry">
            <mxRectangle width="139" height="29" as="alternateBounds" />
          </mxGeometry>
        </mxCell>
        <mxCell id="bOK-Grzy6zvgatFyXtkg-18" value="Comment" style="shape=partialRectangle;html=1;whiteSpace=wrap;connectable=0;overflow=hidden;fillColor=none;top=0;left=0;bottom=0;right=0;pointerEvents=1;fontSize=16;fontFamily=Comic Sans MS;" vertex="1" parent="bOK-Grzy6zvgatFyXtkg-11">
          <mxGeometry x="832" width="138" height="29" as="geometry">
            <mxRectangle width="138" height="29" as="alternateBounds" />
          </mxGeometry>
        </mxCell>
        <mxCell id="bOK-Grzy6zvgatFyXtkg-19" value="" style="shape=tableRow;horizontal=0;startSize=0;swimlaneHead=0;swimlaneBody=0;top=0;left=0;bottom=0;right=0;collapsible=0;dropTarget=0;fillColor=none;points=[[0,0.5],[1,0.5]];portConstraint=eastwest;" vertex="1" parent="bOK-Grzy6zvgatFyXtkg-10">
          <mxGeometry y="29" width="970" height="29" as="geometry" />
        </mxCell>
        <mxCell id="bOK-Grzy6zvgatFyXtkg-20" value="&lt;font style=&quot;font-size: 16px;&quot; face=&quot;Comic Sans MS&quot;&gt;id&lt;/font&gt;" style="shape=partialRectangle;html=1;whiteSpace=wrap;connectable=0;overflow=hidden;fillColor=none;top=0;left=0;bottom=0;right=0;pointerEvents=1;" vertex="1" parent="bOK-Grzy6zvgatFyXtkg-19">
          <mxGeometry width="138" height="29" as="geometry">
            <mxRectangle width="138" height="29" as="alternateBounds" />
          </mxGeometry>
        </mxCell>
        <mxCell id="bOK-Grzy6zvgatFyXtkg-21" value="bigint" style="shape=partialRectangle;html=1;whiteSpace=wrap;connectable=0;overflow=hidden;fillColor=none;top=0;left=0;bottom=0;right=0;pointerEvents=1;" vertex="1" parent="bOK-Grzy6zvgatFyXtkg-19">
          <mxGeometry x="138" width="139" height="29" as="geometry">
            <mxRectangle width="139" height="29" as="alternateBounds" />
          </mxGeometry>
        </mxCell>
        <mxCell id="bOK-Grzy6zvgatFyXtkg-22" value="32" style="shape=partialRectangle;html=1;whiteSpace=wrap;connectable=0;overflow=hidden;fillColor=none;top=0;left=0;bottom=0;right=0;pointerEvents=1;" vertex="1" parent="bOK-Grzy6zvgatFyXtkg-19">
          <mxGeometry x="277" width="138" height="29" as="geometry">
            <mxRectangle width="138" height="29" as="alternateBounds" />
          </mxGeometry>
        </mxCell>
        <mxCell id="bOK-Grzy6zvgatFyXtkg-23" value="" style="shape=partialRectangle;html=1;whiteSpace=wrap;connectable=0;overflow=hidden;fillColor=none;top=0;left=0;bottom=0;right=0;pointerEvents=1;" vertex="1" parent="bOK-Grzy6zvgatFyXtkg-19">
          <mxGeometry x="415" width="140" height="29" as="geometry">
            <mxRectangle width="140" height="29" as="alternateBounds" />
          </mxGeometry>
        </mxCell>
        <mxCell id="bOK-Grzy6zvgatFyXtkg-24" value="" style="shape=partialRectangle;html=1;whiteSpace=wrap;connectable=0;overflow=hidden;fillColor=none;top=0;left=0;bottom=0;right=0;pointerEvents=1;" vertex="1" parent="bOK-Grzy6zvgatFyXtkg-19">
          <mxGeometry x="555" width="138" height="29" as="geometry">
            <mxRectangle width="138" height="29" as="alternateBounds" />
          </mxGeometry>
        </mxCell>
        <mxCell id="bOK-Grzy6zvgatFyXtkg-25" value="" style="shape=partialRectangle;html=1;whiteSpace=wrap;connectable=0;overflow=hidden;fillColor=none;top=0;left=0;bottom=0;right=0;pointerEvents=1;" vertex="1" parent="bOK-Grzy6zvgatFyXtkg-19">
          <mxGeometry x="693" width="139" height="29" as="geometry">
            <mxRectangle width="139" height="29" as="alternateBounds" />
          </mxGeometry>
        </mxCell>
        <mxCell id="bOK-Grzy6zvgatFyXtkg-26" value="" style="shape=partialRectangle;html=1;whiteSpace=wrap;connectable=0;overflow=hidden;fillColor=none;top=0;left=0;bottom=0;right=0;pointerEvents=1;" vertex="1" parent="bOK-Grzy6zvgatFyXtkg-19">
          <mxGeometry x="832" width="138" height="29" as="geometry">
            <mxRectangle width="138" height="29" as="alternateBounds" />
          </mxGeometry>
        </mxCell>
        <mxCell id="bOK-Grzy6zvgatFyXtkg-27" value="" style="shape=tableRow;horizontal=0;startSize=0;swimlaneHead=0;swimlaneBody=0;top=0;left=0;bottom=0;right=0;collapsible=0;dropTarget=0;fillColor=none;points=[[0,0.5],[1,0.5]];portConstraint=eastwest;" vertex="1" parent="bOK-Grzy6zvgatFyXtkg-10">
          <mxGeometry y="58" width="970" height="30" as="geometry" />
        </mxCell>
        <mxCell id="bOK-Grzy6zvgatFyXtkg-28" value="user_id" style="shape=partialRectangle;html=1;whiteSpace=wrap;connectable=0;overflow=hidden;fillColor=none;top=0;left=0;bottom=0;right=0;pointerEvents=1;fontFamily=Comic Sans MS;fontSize=16;" vertex="1" parent="bOK-Grzy6zvgatFyXtkg-27">
          <mxGeometry width="138" height="30" as="geometry">
            <mxRectangle width="138" height="30" as="alternateBounds" />
          </mxGeometry>
        </mxCell>
        <mxCell id="bOK-Grzy6zvgatFyXtkg-29" value="varchar" style="shape=partialRectangle;html=1;whiteSpace=wrap;connectable=0;overflow=hidden;fillColor=none;top=0;left=0;bottom=0;right=0;pointerEvents=1;" vertex="1" parent="bOK-Grzy6zvgatFyXtkg-27">
          <mxGeometry x="138" width="139" height="30" as="geometry">
            <mxRectangle width="139" height="30" as="alternateBounds" />
          </mxGeometry>
        </mxCell>
        <mxCell id="bOK-Grzy6zvgatFyXtkg-30" value="128" style="shape=partialRectangle;html=1;whiteSpace=wrap;connectable=0;overflow=hidden;fillColor=none;top=0;left=0;bottom=0;right=0;pointerEvents=1;" vertex="1" parent="bOK-Grzy6zvgatFyXtkg-27">
          <mxGeometry x="277" width="138" height="30" as="geometry">
            <mxRectangle width="138" height="30" as="alternateBounds" />
          </mxGeometry>
        </mxCell>
        <mxCell id="bOK-Grzy6zvgatFyXtkg-31" value="" style="shape=partialRectangle;html=1;whiteSpace=wrap;connectable=0;overflow=hidden;fillColor=none;top=0;left=0;bottom=0;right=0;pointerEvents=1;" vertex="1" parent="bOK-Grzy6zvgatFyXtkg-27">
          <mxGeometry x="415" width="140" height="30" as="geometry">
            <mxRectangle width="140" height="30" as="alternateBounds" />
          </mxGeometry>
        </mxCell>
        <mxCell id="bOK-Grzy6zvgatFyXtkg-32" value="" style="shape=partialRectangle;html=1;whiteSpace=wrap;connectable=0;overflow=hidden;fillColor=none;top=0;left=0;bottom=0;right=0;pointerEvents=1;" vertex="1" parent="bOK-Grzy6zvgatFyXtkg-27">
          <mxGeometry x="555" width="138" height="30" as="geometry">
            <mxRectangle width="138" height="30" as="alternateBounds" />
          </mxGeometry>
        </mxCell>
        <mxCell id="bOK-Grzy6zvgatFyXtkg-33" value="" style="shape=partialRectangle;html=1;whiteSpace=wrap;connectable=0;overflow=hidden;fillColor=none;top=0;left=0;bottom=0;right=0;pointerEvents=1;" vertex="1" parent="bOK-Grzy6zvgatFyXtkg-27">
          <mxGeometry x="693" width="139" height="30" as="geometry">
            <mxRectangle width="139" height="30" as="alternateBounds" />
          </mxGeometry>
        </mxCell>
        <mxCell id="bOK-Grzy6zvgatFyXtkg-34" value="" style="shape=partialRectangle;html=1;whiteSpace=wrap;connectable=0;overflow=hidden;fillColor=none;top=0;left=0;bottom=0;right=0;pointerEvents=1;" vertex="1" parent="bOK-Grzy6zvgatFyXtkg-27">
          <mxGeometry x="832" width="138" height="30" as="geometry">
            <mxRectangle width="138" height="30" as="alternateBounds" />
          </mxGeometry>
        </mxCell>
        <mxCell id="bOK-Grzy6zvgatFyXtkg-35" value="" style="shape=tableRow;horizontal=0;startSize=0;swimlaneHead=0;swimlaneBody=0;top=0;left=0;bottom=0;right=0;collapsible=0;dropTarget=0;fillColor=none;points=[[0,0.5],[1,0.5]];portConstraint=eastwest;" vertex="1" parent="bOK-Grzy6zvgatFyXtkg-10">
          <mxGeometry y="88" width="970" height="29" as="geometry" />
        </mxCell>
        <mxCell id="bOK-Grzy6zvgatFyXtkg-36" value="canvas_id" style="shape=partialRectangle;html=1;whiteSpace=wrap;connectable=0;overflow=hidden;fillColor=none;top=0;left=0;bottom=0;right=0;pointerEvents=1;fontFamily=Comic Sans MS;fontSize=16;" vertex="1" parent="bOK-Grzy6zvgatFyXtkg-35">
          <mxGeometry width="138" height="29" as="geometry">
            <mxRectangle width="138" height="29" as="alternateBounds" />
          </mxGeometry>
        </mxCell>
        <mxCell id="bOK-Grzy6zvgatFyXtkg-37" value="varchar" style="shape=partialRectangle;html=1;whiteSpace=wrap;connectable=0;overflow=hidden;fillColor=none;top=0;left=0;bottom=0;right=0;pointerEvents=1;" vertex="1" parent="bOK-Grzy6zvgatFyXtkg-35">
          <mxGeometry x="138" width="139" height="29" as="geometry">
            <mxRectangle width="139" height="29" as="alternateBounds" />
          </mxGeometry>
        </mxCell>
        <mxCell id="bOK-Grzy6zvgatFyXtkg-38" value="128" style="shape=partialRectangle;html=1;whiteSpace=wrap;connectable=0;overflow=hidden;fillColor=none;top=0;left=0;bottom=0;right=0;pointerEvents=1;" vertex="1" parent="bOK-Grzy6zvgatFyXtkg-35">
          <mxGeometry x="277" width="138" height="29" as="geometry">
            <mxRectangle width="138" height="29" as="alternateBounds" />
          </mxGeometry>
        </mxCell>
        <mxCell id="bOK-Grzy6zvgatFyXtkg-39" value="" style="shape=partialRectangle;html=1;whiteSpace=wrap;connectable=0;overflow=hidden;fillColor=none;top=0;left=0;bottom=0;right=0;pointerEvents=1;" vertex="1" parent="bOK-Grzy6zvgatFyXtkg-35">
          <mxGeometry x="415" width="140" height="29" as="geometry">
            <mxRectangle width="140" height="29" as="alternateBounds" />
          </mxGeometry>
        </mxCell>
        <mxCell id="bOK-Grzy6zvgatFyXtkg-40" value="" style="shape=partialRectangle;html=1;whiteSpace=wrap;connectable=0;overflow=hidden;fillColor=none;top=0;left=0;bottom=0;right=0;pointerEvents=1;" vertex="1" parent="bOK-Grzy6zvgatFyXtkg-35">
          <mxGeometry x="555" width="138" height="29" as="geometry">
            <mxRectangle width="138" height="29" as="alternateBounds" />
          </mxGeometry>
        </mxCell>
        <mxCell id="bOK-Grzy6zvgatFyXtkg-41" value="" style="shape=partialRectangle;html=1;whiteSpace=wrap;connectable=0;overflow=hidden;fillColor=none;top=0;left=0;bottom=0;right=0;pointerEvents=1;" vertex="1" parent="bOK-Grzy6zvgatFyXtkg-35">
          <mxGeometry x="693" width="139" height="29" as="geometry">
            <mxRectangle width="139" height="29" as="alternateBounds" />
          </mxGeometry>
        </mxCell>
        <mxCell id="bOK-Grzy6zvgatFyXtkg-42" value="" style="shape=partialRectangle;html=1;whiteSpace=wrap;connectable=0;overflow=hidden;fillColor=none;top=0;left=0;bottom=0;right=0;pointerEvents=1;" vertex="1" parent="bOK-Grzy6zvgatFyXtkg-35">
          <mxGeometry x="832" width="138" height="29" as="geometry">
            <mxRectangle width="138" height="29" as="alternateBounds" />
          </mxGeometry>
        </mxCell>
        <mxCell id="bOK-Grzy6zvgatFyXtkg-43" value="" style="shape=tableRow;horizontal=0;startSize=0;swimlaneHead=0;swimlaneBody=0;top=0;left=0;bottom=0;right=0;collapsible=0;dropTarget=0;fillColor=none;points=[[0,0.5],[1,0.5]];portConstraint=eastwest;" vertex="1" parent="bOK-Grzy6zvgatFyXtkg-10">
          <mxGeometry y="117" width="970" height="30" as="geometry" />
        </mxCell>
        <mxCell id="bOK-Grzy6zvgatFyXtkg-44" value="tenant_id" style="shape=partialRectangle;html=1;whiteSpace=wrap;connectable=0;overflow=hidden;fillColor=none;top=0;left=0;bottom=0;right=0;pointerEvents=1;fontFamily=Comic Sans MS;fontSize=16;" vertex="1" parent="bOK-Grzy6zvgatFyXtkg-43">
          <mxGeometry width="138" height="30" as="geometry">
            <mxRectangle width="138" height="30" as="alternateBounds" />
          </mxGeometry>
        </mxCell>
        <mxCell id="bOK-Grzy6zvgatFyXtkg-45" value="varchar" style="shape=partialRectangle;html=1;whiteSpace=wrap;connectable=0;overflow=hidden;fillColor=none;top=0;left=0;bottom=0;right=0;pointerEvents=1;" vertex="1" parent="bOK-Grzy6zvgatFyXtkg-43">
          <mxGeometry x="138" width="139" height="30" as="geometry">
            <mxRectangle width="139" height="30" as="alternateBounds" />
          </mxGeometry>
        </mxCell>
        <mxCell id="bOK-Grzy6zvgatFyXtkg-46" value="128" style="shape=partialRectangle;html=1;whiteSpace=wrap;connectable=0;overflow=hidden;fillColor=none;top=0;left=0;bottom=0;right=0;pointerEvents=1;" vertex="1" parent="bOK-Grzy6zvgatFyXtkg-43">
          <mxGeometry x="277" width="138" height="30" as="geometry">
            <mxRectangle width="138" height="30" as="alternateBounds" />
          </mxGeometry>
        </mxCell>
        <mxCell id="bOK-Grzy6zvgatFyXtkg-47" value="" style="shape=partialRectangle;html=1;whiteSpace=wrap;connectable=0;overflow=hidden;fillColor=none;top=0;left=0;bottom=0;right=0;pointerEvents=1;" vertex="1" parent="bOK-Grzy6zvgatFyXtkg-43">
          <mxGeometry x="415" width="140" height="30" as="geometry">
            <mxRectangle width="140" height="30" as="alternateBounds" />
          </mxGeometry>
        </mxCell>
        <mxCell id="bOK-Grzy6zvgatFyXtkg-48" value="" style="shape=partialRectangle;html=1;whiteSpace=wrap;connectable=0;overflow=hidden;fillColor=none;top=0;left=0;bottom=0;right=0;pointerEvents=1;" vertex="1" parent="bOK-Grzy6zvgatFyXtkg-43">
          <mxGeometry x="555" width="138" height="30" as="geometry">
            <mxRectangle width="138" height="30" as="alternateBounds" />
          </mxGeometry>
        </mxCell>
        <mxCell id="bOK-Grzy6zvgatFyXtkg-49" value="" style="shape=partialRectangle;html=1;whiteSpace=wrap;connectable=0;overflow=hidden;fillColor=none;top=0;left=0;bottom=0;right=0;pointerEvents=1;" vertex="1" parent="bOK-Grzy6zvgatFyXtkg-43">
          <mxGeometry x="693" width="139" height="30" as="geometry">
            <mxRectangle width="139" height="30" as="alternateBounds" />
          </mxGeometry>
        </mxCell>
        <mxCell id="bOK-Grzy6zvgatFyXtkg-50" value="" style="shape=partialRectangle;html=1;whiteSpace=wrap;connectable=0;overflow=hidden;fillColor=none;top=0;left=0;bottom=0;right=0;pointerEvents=1;" vertex="1" parent="bOK-Grzy6zvgatFyXtkg-43">
          <mxGeometry x="832" width="138" height="30" as="geometry">
            <mxRectangle width="138" height="30" as="alternateBounds" />
          </mxGeometry>
        </mxCell>
        <mxCell id="bOK-Grzy6zvgatFyXtkg-51" value="" style="shape=tableRow;horizontal=0;startSize=0;swimlaneHead=0;swimlaneBody=0;top=0;left=0;bottom=0;right=0;collapsible=0;dropTarget=0;fillColor=none;points=[[0,0.5],[1,0.5]];portConstraint=eastwest;" vertex="1" parent="bOK-Grzy6zvgatFyXtkg-10">
          <mxGeometry y="147" width="970" height="29" as="geometry" />
        </mxCell>
        <mxCell id="bOK-Grzy6zvgatFyXtkg-52" value="node_id" style="shape=partialRectangle;html=1;whiteSpace=wrap;connectable=0;overflow=hidden;fillColor=none;top=0;left=0;bottom=0;right=0;pointerEvents=1;fontFamily=Comic Sans MS;fontSize=16;" vertex="1" parent="bOK-Grzy6zvgatFyXtkg-51">
          <mxGeometry width="138" height="29" as="geometry">
            <mxRectangle width="138" height="29" as="alternateBounds" />
          </mxGeometry>
        </mxCell>
        <mxCell id="bOK-Grzy6zvgatFyXtkg-53" value="varchar" style="shape=partialRectangle;html=1;whiteSpace=wrap;connectable=0;overflow=hidden;fillColor=none;top=0;left=0;bottom=0;right=0;pointerEvents=1;" vertex="1" parent="bOK-Grzy6zvgatFyXtkg-51">
          <mxGeometry x="138" width="139" height="29" as="geometry">
            <mxRectangle width="139" height="29" as="alternateBounds" />
          </mxGeometry>
        </mxCell>
        <mxCell id="bOK-Grzy6zvgatFyXtkg-54" value="128" style="shape=partialRectangle;html=1;whiteSpace=wrap;connectable=0;overflow=hidden;fillColor=none;top=0;left=0;bottom=0;right=0;pointerEvents=1;" vertex="1" parent="bOK-Grzy6zvgatFyXtkg-51">
          <mxGeometry x="277" width="138" height="29" as="geometry">
            <mxRectangle width="138" height="29" as="alternateBounds" />
          </mxGeometry>
        </mxCell>
        <mxCell id="bOK-Grzy6zvgatFyXtkg-55" value="" style="shape=partialRectangle;html=1;whiteSpace=wrap;connectable=0;overflow=hidden;fillColor=none;top=0;left=0;bottom=0;right=0;pointerEvents=1;" vertex="1" parent="bOK-Grzy6zvgatFyXtkg-51">
          <mxGeometry x="415" width="140" height="29" as="geometry">
            <mxRectangle width="140" height="29" as="alternateBounds" />
          </mxGeometry>
        </mxCell>
        <mxCell id="bOK-Grzy6zvgatFyXtkg-56" value="" style="shape=partialRectangle;html=1;whiteSpace=wrap;connectable=0;overflow=hidden;fillColor=none;top=0;left=0;bottom=0;right=0;pointerEvents=1;" vertex="1" parent="bOK-Grzy6zvgatFyXtkg-51">
          <mxGeometry x="555" width="138" height="29" as="geometry">
            <mxRectangle width="138" height="29" as="alternateBounds" />
          </mxGeometry>
        </mxCell>
        <mxCell id="bOK-Grzy6zvgatFyXtkg-57" value="" style="shape=partialRectangle;html=1;whiteSpace=wrap;connectable=0;overflow=hidden;fillColor=none;top=0;left=0;bottom=0;right=0;pointerEvents=1;" vertex="1" parent="bOK-Grzy6zvgatFyXtkg-51">
          <mxGeometry x="693" width="139" height="29" as="geometry">
            <mxRectangle width="139" height="29" as="alternateBounds" />
          </mxGeometry>
        </mxCell>
        <mxCell id="bOK-Grzy6zvgatFyXtkg-58" value="" style="shape=partialRectangle;html=1;whiteSpace=wrap;connectable=0;overflow=hidden;fillColor=none;top=0;left=0;bottom=0;right=0;pointerEvents=1;" vertex="1" parent="bOK-Grzy6zvgatFyXtkg-51">
          <mxGeometry x="832" width="138" height="29" as="geometry">
            <mxRectangle width="138" height="29" as="alternateBounds" />
          </mxGeometry>
        </mxCell>
        <mxCell id="bOK-Grzy6zvgatFyXtkg-59" style="shape=tableRow;horizontal=0;startSize=0;swimlaneHead=0;swimlaneBody=0;top=0;left=0;bottom=0;right=0;collapsible=0;dropTarget=0;fillColor=none;points=[[0,0.5],[1,0.5]];portConstraint=eastwest;" vertex="1" parent="bOK-Grzy6zvgatFyXtkg-10">
          <mxGeometry y="176" width="970" height="29" as="geometry" />
        </mxCell>
        <mxCell id="bOK-Grzy6zvgatFyXtkg-60" value="node_name" style="shape=partialRectangle;html=1;whiteSpace=wrap;connectable=0;overflow=hidden;fillColor=none;top=0;left=0;bottom=0;right=0;pointerEvents=1;fontFamily=Comic Sans MS;fontSize=16;" vertex="1" parent="bOK-Grzy6zvgatFyXtkg-59">
          <mxGeometry width="138" height="29" as="geometry">
            <mxRectangle width="138" height="29" as="alternateBounds" />
          </mxGeometry>
        </mxCell>
        <mxCell id="bOK-Grzy6zvgatFyXtkg-61" value="varchar" style="shape=partialRectangle;html=1;whiteSpace=wrap;connectable=0;overflow=hidden;fillColor=none;top=0;left=0;bottom=0;right=0;pointerEvents=1;" vertex="1" parent="bOK-Grzy6zvgatFyXtkg-59">
          <mxGeometry x="138" width="139" height="29" as="geometry">
            <mxRectangle width="139" height="29" as="alternateBounds" />
          </mxGeometry>
        </mxCell>
        <mxCell id="bOK-Grzy6zvgatFyXtkg-62" value="128" style="shape=partialRectangle;html=1;whiteSpace=wrap;connectable=0;overflow=hidden;fillColor=none;top=0;left=0;bottom=0;right=0;pointerEvents=1;" vertex="1" parent="bOK-Grzy6zvgatFyXtkg-59">
          <mxGeometry x="277" width="138" height="29" as="geometry">
            <mxRectangle width="138" height="29" as="alternateBounds" />
          </mxGeometry>
        </mxCell>
        <mxCell id="bOK-Grzy6zvgatFyXtkg-63" style="shape=partialRectangle;html=1;whiteSpace=wrap;connectable=0;overflow=hidden;fillColor=none;top=0;left=0;bottom=0;right=0;pointerEvents=1;" vertex="1" parent="bOK-Grzy6zvgatFyXtkg-59">
          <mxGeometry x="415" width="140" height="29" as="geometry">
            <mxRectangle width="140" height="29" as="alternateBounds" />
          </mxGeometry>
        </mxCell>
        <mxCell id="bOK-Grzy6zvgatFyXtkg-64" style="shape=partialRectangle;html=1;whiteSpace=wrap;connectable=0;overflow=hidden;fillColor=none;top=0;left=0;bottom=0;right=0;pointerEvents=1;" vertex="1" parent="bOK-Grzy6zvgatFyXtkg-59">
          <mxGeometry x="555" width="138" height="29" as="geometry">
            <mxRectangle width="138" height="29" as="alternateBounds" />
          </mxGeometry>
        </mxCell>
        <mxCell id="bOK-Grzy6zvgatFyXtkg-65" style="shape=partialRectangle;html=1;whiteSpace=wrap;connectable=0;overflow=hidden;fillColor=none;top=0;left=0;bottom=0;right=0;pointerEvents=1;" vertex="1" parent="bOK-Grzy6zvgatFyXtkg-59">
          <mxGeometry x="693" width="139" height="29" as="geometry">
            <mxRectangle width="139" height="29" as="alternateBounds" />
          </mxGeometry>
        </mxCell>
        <mxCell id="bOK-Grzy6zvgatFyXtkg-66" style="shape=partialRectangle;html=1;whiteSpace=wrap;connectable=0;overflow=hidden;fillColor=none;top=0;left=0;bottom=0;right=0;pointerEvents=1;" vertex="1" parent="bOK-Grzy6zvgatFyXtkg-59">
          <mxGeometry x="832" width="138" height="29" as="geometry">
            <mxRectangle width="138" height="29" as="alternateBounds" />
          </mxGeometry>
        </mxCell>
        <mxCell id="bOK-Grzy6zvgatFyXtkg-67" style="shape=tableRow;horizontal=0;startSize=0;swimlaneHead=0;swimlaneBody=0;top=0;left=0;bottom=0;right=0;collapsible=0;dropTarget=0;fillColor=none;points=[[0,0.5],[1,0.5]];portConstraint=eastwest;" vertex="1" parent="bOK-Grzy6zvgatFyXtkg-10">
          <mxGeometry y="205" width="970" height="30" as="geometry" />
        </mxCell>
        <mxCell id="bOK-Grzy6zvgatFyXtkg-68" value="node_desc" style="shape=partialRectangle;html=1;whiteSpace=wrap;connectable=0;overflow=hidden;fillColor=none;top=0;left=0;bottom=0;right=0;pointerEvents=1;fontFamily=Comic Sans MS;fontSize=16;" vertex="1" parent="bOK-Grzy6zvgatFyXtkg-67">
          <mxGeometry width="138" height="30" as="geometry">
            <mxRectangle width="138" height="30" as="alternateBounds" />
          </mxGeometry>
        </mxCell>
        <mxCell id="bOK-Grzy6zvgatFyXtkg-69" value="varchar" style="shape=partialRectangle;html=1;whiteSpace=wrap;connectable=0;overflow=hidden;fillColor=none;top=0;left=0;bottom=0;right=0;pointerEvents=1;" vertex="1" parent="bOK-Grzy6zvgatFyXtkg-67">
          <mxGeometry x="138" width="139" height="30" as="geometry">
            <mxRectangle width="139" height="30" as="alternateBounds" />
          </mxGeometry>
        </mxCell>
        <mxCell id="bOK-Grzy6zvgatFyXtkg-70" value="256" style="shape=partialRectangle;html=1;whiteSpace=wrap;connectable=0;overflow=hidden;fillColor=none;top=0;left=0;bottom=0;right=0;pointerEvents=1;" vertex="1" parent="bOK-Grzy6zvgatFyXtkg-67">
          <mxGeometry x="277" width="138" height="30" as="geometry">
            <mxRectangle width="138" height="30" as="alternateBounds" />
          </mxGeometry>
        </mxCell>
        <mxCell id="bOK-Grzy6zvgatFyXtkg-71" style="shape=partialRectangle;html=1;whiteSpace=wrap;connectable=0;overflow=hidden;fillColor=none;top=0;left=0;bottom=0;right=0;pointerEvents=1;" vertex="1" parent="bOK-Grzy6zvgatFyXtkg-67">
          <mxGeometry x="415" width="140" height="30" as="geometry">
            <mxRectangle width="140" height="30" as="alternateBounds" />
          </mxGeometry>
        </mxCell>
        <mxCell id="bOK-Grzy6zvgatFyXtkg-72" style="shape=partialRectangle;html=1;whiteSpace=wrap;connectable=0;overflow=hidden;fillColor=none;top=0;left=0;bottom=0;right=0;pointerEvents=1;" vertex="1" parent="bOK-Grzy6zvgatFyXtkg-67">
          <mxGeometry x="555" width="138" height="30" as="geometry">
            <mxRectangle width="138" height="30" as="alternateBounds" />
          </mxGeometry>
        </mxCell>
        <mxCell id="bOK-Grzy6zvgatFyXtkg-73" style="shape=partialRectangle;html=1;whiteSpace=wrap;connectable=0;overflow=hidden;fillColor=none;top=0;left=0;bottom=0;right=0;pointerEvents=1;" vertex="1" parent="bOK-Grzy6zvgatFyXtkg-67">
          <mxGeometry x="693" width="139" height="30" as="geometry">
            <mxRectangle width="139" height="30" as="alternateBounds" />
          </mxGeometry>
        </mxCell>
        <mxCell id="bOK-Grzy6zvgatFyXtkg-74" style="shape=partialRectangle;html=1;whiteSpace=wrap;connectable=0;overflow=hidden;fillColor=none;top=0;left=0;bottom=0;right=0;pointerEvents=1;" vertex="1" parent="bOK-Grzy6zvgatFyXtkg-67">
          <mxGeometry x="832" width="138" height="30" as="geometry">
            <mxRectangle width="138" height="30" as="alternateBounds" />
          </mxGeometry>
        </mxCell>
        <mxCell id="bOK-Grzy6zvgatFyXtkg-75" style="shape=tableRow;horizontal=0;startSize=0;swimlaneHead=0;swimlaneBody=0;top=0;left=0;bottom=0;right=0;collapsible=0;dropTarget=0;fillColor=none;points=[[0,0.5],[1,0.5]];portConstraint=eastwest;" vertex="1" parent="bOK-Grzy6zvgatFyXtkg-10">
          <mxGeometry y="235" width="970" height="29" as="geometry" />
        </mxCell>
        <mxCell id="bOK-Grzy6zvgatFyXtkg-76" value="node_type" style="shape=partialRectangle;html=1;whiteSpace=wrap;connectable=0;overflow=hidden;fillColor=none;top=0;left=0;bottom=0;right=0;pointerEvents=1;fontFamily=Comic Sans MS;fontSize=16;" vertex="1" parent="bOK-Grzy6zvgatFyXtkg-75">
          <mxGeometry width="138" height="29" as="geometry">
            <mxRectangle width="138" height="29" as="alternateBounds" />
          </mxGeometry>
        </mxCell>
        <mxCell id="bOK-Grzy6zvgatFyXtkg-77" value="varchar" style="shape=partialRectangle;html=1;whiteSpace=wrap;connectable=0;overflow=hidden;fillColor=none;top=0;left=0;bottom=0;right=0;pointerEvents=1;" vertex="1" parent="bOK-Grzy6zvgatFyXtkg-75">
          <mxGeometry x="138" width="139" height="29" as="geometry">
            <mxRectangle width="139" height="29" as="alternateBounds" />
          </mxGeometry>
        </mxCell>
        <mxCell id="bOK-Grzy6zvgatFyXtkg-78" value="128" style="shape=partialRectangle;html=1;whiteSpace=wrap;connectable=0;overflow=hidden;fillColor=none;top=0;left=0;bottom=0;right=0;pointerEvents=1;" vertex="1" parent="bOK-Grzy6zvgatFyXtkg-75">
          <mxGeometry x="277" width="138" height="29" as="geometry">
            <mxRectangle width="138" height="29" as="alternateBounds" />
          </mxGeometry>
        </mxCell>
        <mxCell id="bOK-Grzy6zvgatFyXtkg-79" style="shape=partialRectangle;html=1;whiteSpace=wrap;connectable=0;overflow=hidden;fillColor=none;top=0;left=0;bottom=0;right=0;pointerEvents=1;" vertex="1" parent="bOK-Grzy6zvgatFyXtkg-75">
          <mxGeometry x="415" width="140" height="29" as="geometry">
            <mxRectangle width="140" height="29" as="alternateBounds" />
          </mxGeometry>
        </mxCell>
        <mxCell id="bOK-Grzy6zvgatFyXtkg-80" style="shape=partialRectangle;html=1;whiteSpace=wrap;connectable=0;overflow=hidden;fillColor=none;top=0;left=0;bottom=0;right=0;pointerEvents=1;" vertex="1" parent="bOK-Grzy6zvgatFyXtkg-75">
          <mxGeometry x="555" width="138" height="29" as="geometry">
            <mxRectangle width="138" height="29" as="alternateBounds" />
          </mxGeometry>
        </mxCell>
        <mxCell id="bOK-Grzy6zvgatFyXtkg-81" style="shape=partialRectangle;html=1;whiteSpace=wrap;connectable=0;overflow=hidden;fillColor=none;top=0;left=0;bottom=0;right=0;pointerEvents=1;" vertex="1" parent="bOK-Grzy6zvgatFyXtkg-75">
          <mxGeometry x="693" width="139" height="29" as="geometry">
            <mxRectangle width="139" height="29" as="alternateBounds" />
          </mxGeometry>
        </mxCell>
        <mxCell id="bOK-Grzy6zvgatFyXtkg-82" style="shape=partialRectangle;html=1;whiteSpace=wrap;connectable=0;overflow=hidden;fillColor=none;top=0;left=0;bottom=0;right=0;pointerEvents=1;" vertex="1" parent="bOK-Grzy6zvgatFyXtkg-75">
          <mxGeometry x="832" width="138" height="29" as="geometry">
            <mxRectangle width="138" height="29" as="alternateBounds" />
          </mxGeometry>
        </mxCell>
        <mxCell id="bOK-Grzy6zvgatFyXtkg-83" style="shape=tableRow;horizontal=0;startSize=0;swimlaneHead=0;swimlaneBody=0;top=0;left=0;bottom=0;right=0;collapsible=0;dropTarget=0;fillColor=none;points=[[0,0.5],[1,0.5]];portConstraint=eastwest;" vertex="1" parent="bOK-Grzy6zvgatFyXtkg-10">
          <mxGeometry y="264" width="970" height="29" as="geometry" />
        </mxCell>
        <mxCell id="bOK-Grzy6zvgatFyXtkg-84" value="code" style="shape=partialRectangle;html=1;whiteSpace=wrap;connectable=0;overflow=hidden;fillColor=none;top=0;left=0;bottom=0;right=0;pointerEvents=1;fontFamily=Comic Sans MS;fontSize=16;" vertex="1" parent="bOK-Grzy6zvgatFyXtkg-83">
          <mxGeometry width="138" height="29" as="geometry">
            <mxRectangle width="138" height="29" as="alternateBounds" />
          </mxGeometry>
        </mxCell>
        <mxCell id="bOK-Grzy6zvgatFyXtkg-85" value="longtext" style="shape=partialRectangle;html=1;whiteSpace=wrap;connectable=0;overflow=hidden;fillColor=none;top=0;left=0;bottom=0;right=0;pointerEvents=1;" vertex="1" parent="bOK-Grzy6zvgatFyXtkg-83">
          <mxGeometry x="138" width="139" height="29" as="geometry">
            <mxRectangle width="139" height="29" as="alternateBounds" />
          </mxGeometry>
        </mxCell>
        <mxCell id="bOK-Grzy6zvgatFyXtkg-86" value="0" style="shape=partialRectangle;html=1;whiteSpace=wrap;connectable=0;overflow=hidden;fillColor=none;top=0;left=0;bottom=0;right=0;pointerEvents=1;" vertex="1" parent="bOK-Grzy6zvgatFyXtkg-83">
          <mxGeometry x="277" width="138" height="29" as="geometry">
            <mxRectangle width="138" height="29" as="alternateBounds" />
          </mxGeometry>
        </mxCell>
        <mxCell id="bOK-Grzy6zvgatFyXtkg-87" style="shape=partialRectangle;html=1;whiteSpace=wrap;connectable=0;overflow=hidden;fillColor=none;top=0;left=0;bottom=0;right=0;pointerEvents=1;" vertex="1" parent="bOK-Grzy6zvgatFyXtkg-83">
          <mxGeometry x="415" width="140" height="29" as="geometry">
            <mxRectangle width="140" height="29" as="alternateBounds" />
          </mxGeometry>
        </mxCell>
        <mxCell id="bOK-Grzy6zvgatFyXtkg-88" style="shape=partialRectangle;html=1;whiteSpace=wrap;connectable=0;overflow=hidden;fillColor=none;top=0;left=0;bottom=0;right=0;pointerEvents=1;" vertex="1" parent="bOK-Grzy6zvgatFyXtkg-83">
          <mxGeometry x="555" width="138" height="29" as="geometry">
            <mxRectangle width="138" height="29" as="alternateBounds" />
          </mxGeometry>
        </mxCell>
        <mxCell id="bOK-Grzy6zvgatFyXtkg-89" style="shape=partialRectangle;html=1;whiteSpace=wrap;connectable=0;overflow=hidden;fillColor=none;top=0;left=0;bottom=0;right=0;pointerEvents=1;" vertex="1" parent="bOK-Grzy6zvgatFyXtkg-83">
          <mxGeometry x="693" width="139" height="29" as="geometry">
            <mxRectangle width="139" height="29" as="alternateBounds" />
          </mxGeometry>
        </mxCell>
        <mxCell id="bOK-Grzy6zvgatFyXtkg-90" style="shape=partialRectangle;html=1;whiteSpace=wrap;connectable=0;overflow=hidden;fillColor=none;top=0;left=0;bottom=0;right=0;pointerEvents=1;" vertex="1" parent="bOK-Grzy6zvgatFyXtkg-83">
          <mxGeometry x="832" width="138" height="29" as="geometry">
            <mxRectangle width="138" height="29" as="alternateBounds" />
          </mxGeometry>
        </mxCell>
        <mxCell id="bOK-Grzy6zvgatFyXtkg-91" style="shape=tableRow;horizontal=0;startSize=0;swimlaneHead=0;swimlaneBody=0;top=0;left=0;bottom=0;right=0;collapsible=0;dropTarget=0;fillColor=none;points=[[0,0.5],[1,0.5]];portConstraint=eastwest;" vertex="1" parent="bOK-Grzy6zvgatFyXtkg-10">
          <mxGeometry y="293" width="970" height="29" as="geometry" />
        </mxCell>
        <mxCell id="bOK-Grzy6zvgatFyXtkg-92" value="content" style="shape=partialRectangle;html=1;whiteSpace=wrap;connectable=0;overflow=hidden;fillColor=none;top=0;left=0;bottom=0;right=0;pointerEvents=1;fontFamily=Comic Sans MS;fontSize=16;" vertex="1" parent="bOK-Grzy6zvgatFyXtkg-91">
          <mxGeometry width="138" height="29" as="geometry">
            <mxRectangle width="138" height="29" as="alternateBounds" />
          </mxGeometry>
        </mxCell>
        <mxCell id="bOK-Grzy6zvgatFyXtkg-93" value="longtext" style="shape=partialRectangle;html=1;whiteSpace=wrap;connectable=0;overflow=hidden;fillColor=none;top=0;left=0;bottom=0;right=0;pointerEvents=1;" vertex="1" parent="bOK-Grzy6zvgatFyXtkg-91">
          <mxGeometry x="138" width="139" height="29" as="geometry">
            <mxRectangle width="139" height="29" as="alternateBounds" />
          </mxGeometry>
        </mxCell>
        <mxCell id="bOK-Grzy6zvgatFyXtkg-94" value="0" style="shape=partialRectangle;html=1;whiteSpace=wrap;connectable=0;overflow=hidden;fillColor=none;top=0;left=0;bottom=0;right=0;pointerEvents=1;" vertex="1" parent="bOK-Grzy6zvgatFyXtkg-91">
          <mxGeometry x="277" width="138" height="29" as="geometry">
            <mxRectangle width="138" height="29" as="alternateBounds" />
          </mxGeometry>
        </mxCell>
        <mxCell id="bOK-Grzy6zvgatFyXtkg-95" style="shape=partialRectangle;html=1;whiteSpace=wrap;connectable=0;overflow=hidden;fillColor=none;top=0;left=0;bottom=0;right=0;pointerEvents=1;" vertex="1" parent="bOK-Grzy6zvgatFyXtkg-91">
          <mxGeometry x="415" width="140" height="29" as="geometry">
            <mxRectangle width="140" height="29" as="alternateBounds" />
          </mxGeometry>
        </mxCell>
        <mxCell id="bOK-Grzy6zvgatFyXtkg-96" style="shape=partialRectangle;html=1;whiteSpace=wrap;connectable=0;overflow=hidden;fillColor=none;top=0;left=0;bottom=0;right=0;pointerEvents=1;" vertex="1" parent="bOK-Grzy6zvgatFyXtkg-91">
          <mxGeometry x="555" width="138" height="29" as="geometry">
            <mxRectangle width="138" height="29" as="alternateBounds" />
          </mxGeometry>
        </mxCell>
        <mxCell id="bOK-Grzy6zvgatFyXtkg-97" style="shape=partialRectangle;html=1;whiteSpace=wrap;connectable=0;overflow=hidden;fillColor=none;top=0;left=0;bottom=0;right=0;pointerEvents=1;" vertex="1" parent="bOK-Grzy6zvgatFyXtkg-91">
          <mxGeometry x="693" width="139" height="29" as="geometry">
            <mxRectangle width="139" height="29" as="alternateBounds" />
          </mxGeometry>
        </mxCell>
        <mxCell id="bOK-Grzy6zvgatFyXtkg-98" style="shape=partialRectangle;html=1;whiteSpace=wrap;connectable=0;overflow=hidden;fillColor=none;top=0;left=0;bottom=0;right=0;pointerEvents=1;" vertex="1" parent="bOK-Grzy6zvgatFyXtkg-91">
          <mxGeometry x="832" width="138" height="29" as="geometry">
            <mxRectangle width="138" height="29" as="alternateBounds" />
          </mxGeometry>
        </mxCell>
        <mxCell id="bOK-Grzy6zvgatFyXtkg-99" style="shape=tableRow;horizontal=0;startSize=0;swimlaneHead=0;swimlaneBody=0;top=0;left=0;bottom=0;right=0;collapsible=0;dropTarget=0;fillColor=none;points=[[0,0.5],[1,0.5]];portConstraint=eastwest;" vertex="1" parent="bOK-Grzy6zvgatFyXtkg-10">
          <mxGeometry y="322" width="970" height="30" as="geometry" />
        </mxCell>
        <mxCell id="bOK-Grzy6zvgatFyXtkg-100" value="node_version" style="shape=partialRectangle;html=1;whiteSpace=wrap;connectable=0;overflow=hidden;fillColor=none;top=0;left=0;bottom=0;right=0;pointerEvents=1;fontFamily=Comic Sans MS;fontSize=16;" vertex="1" parent="bOK-Grzy6zvgatFyXtkg-99">
          <mxGeometry width="138" height="30" as="geometry">
            <mxRectangle width="138" height="30" as="alternateBounds" />
          </mxGeometry>
        </mxCell>
        <mxCell id="bOK-Grzy6zvgatFyXtkg-101" value="bigint" style="shape=partialRectangle;html=1;whiteSpace=wrap;connectable=0;overflow=hidden;fillColor=none;top=0;left=0;bottom=0;right=0;pointerEvents=1;" vertex="1" parent="bOK-Grzy6zvgatFyXtkg-99">
          <mxGeometry x="138" width="139" height="30" as="geometry">
            <mxRectangle width="139" height="30" as="alternateBounds" />
          </mxGeometry>
        </mxCell>
        <mxCell id="bOK-Grzy6zvgatFyXtkg-102" value="32" style="shape=partialRectangle;html=1;whiteSpace=wrap;connectable=0;overflow=hidden;fillColor=none;top=0;left=0;bottom=0;right=0;pointerEvents=1;" vertex="1" parent="bOK-Grzy6zvgatFyXtkg-99">
          <mxGeometry x="277" width="138" height="30" as="geometry">
            <mxRectangle width="138" height="30" as="alternateBounds" />
          </mxGeometry>
        </mxCell>
        <mxCell id="bOK-Grzy6zvgatFyXtkg-103" style="shape=partialRectangle;html=1;whiteSpace=wrap;connectable=0;overflow=hidden;fillColor=none;top=0;left=0;bottom=0;right=0;pointerEvents=1;" vertex="1" parent="bOK-Grzy6zvgatFyXtkg-99">
          <mxGeometry x="415" width="140" height="30" as="geometry">
            <mxRectangle width="140" height="30" as="alternateBounds" />
          </mxGeometry>
        </mxCell>
        <mxCell id="bOK-Grzy6zvgatFyXtkg-104" style="shape=partialRectangle;html=1;whiteSpace=wrap;connectable=0;overflow=hidden;fillColor=none;top=0;left=0;bottom=0;right=0;pointerEvents=1;" vertex="1" parent="bOK-Grzy6zvgatFyXtkg-99">
          <mxGeometry x="555" width="138" height="30" as="geometry">
            <mxRectangle width="138" height="30" as="alternateBounds" />
          </mxGeometry>
        </mxCell>
        <mxCell id="bOK-Grzy6zvgatFyXtkg-105" style="shape=partialRectangle;html=1;whiteSpace=wrap;connectable=0;overflow=hidden;fillColor=none;top=0;left=0;bottom=0;right=0;pointerEvents=1;" vertex="1" parent="bOK-Grzy6zvgatFyXtkg-99">
          <mxGeometry x="693" width="139" height="30" as="geometry">
            <mxRectangle width="139" height="30" as="alternateBounds" />
          </mxGeometry>
        </mxCell>
        <mxCell id="bOK-Grzy6zvgatFyXtkg-106" style="shape=partialRectangle;html=1;whiteSpace=wrap;connectable=0;overflow=hidden;fillColor=none;top=0;left=0;bottom=0;right=0;pointerEvents=1;" vertex="1" parent="bOK-Grzy6zvgatFyXtkg-99">
          <mxGeometry x="832" width="138" height="30" as="geometry">
            <mxRectangle width="138" height="30" as="alternateBounds" />
          </mxGeometry>
        </mxCell>
        <mxCell id="bOK-Grzy6zvgatFyXtkg-107" style="shape=tableRow;horizontal=0;startSize=0;swimlaneHead=0;swimlaneBody=0;top=0;left=0;bottom=0;right=0;collapsible=0;dropTarget=0;fillColor=none;points=[[0,0.5],[1,0.5]];portConstraint=eastwest;" vertex="1" parent="bOK-Grzy6zvgatFyXtkg-10">
          <mxGeometry y="352" width="970" height="29" as="geometry" />
        </mxCell>
        <mxCell id="bOK-Grzy6zvgatFyXtkg-108" value="create_time" style="shape=partialRectangle;html=1;whiteSpace=wrap;connectable=0;overflow=hidden;fillColor=none;top=0;left=0;bottom=0;right=0;pointerEvents=1;fontFamily=Comic Sans MS;fontSize=16;" vertex="1" parent="bOK-Grzy6zvgatFyXtkg-107">
          <mxGeometry width="138" height="29" as="geometry">
            <mxRectangle width="138" height="29" as="alternateBounds" />
          </mxGeometry>
        </mxCell>
        <mxCell id="bOK-Grzy6zvgatFyXtkg-109" value="timestamp" style="shape=partialRectangle;html=1;whiteSpace=wrap;connectable=0;overflow=hidden;fillColor=none;top=0;left=0;bottom=0;right=0;pointerEvents=1;" vertex="1" parent="bOK-Grzy6zvgatFyXtkg-107">
          <mxGeometry x="138" width="139" height="29" as="geometry">
            <mxRectangle width="139" height="29" as="alternateBounds" />
          </mxGeometry>
        </mxCell>
        <mxCell id="bOK-Grzy6zvgatFyXtkg-110" value="0" style="shape=partialRectangle;html=1;whiteSpace=wrap;connectable=0;overflow=hidden;fillColor=none;top=0;left=0;bottom=0;right=0;pointerEvents=1;" vertex="1" parent="bOK-Grzy6zvgatFyXtkg-107">
          <mxGeometry x="277" width="138" height="29" as="geometry">
            <mxRectangle width="138" height="29" as="alternateBounds" />
          </mxGeometry>
        </mxCell>
        <mxCell id="bOK-Grzy6zvgatFyXtkg-111" style="shape=partialRectangle;html=1;whiteSpace=wrap;connectable=0;overflow=hidden;fillColor=none;top=0;left=0;bottom=0;right=0;pointerEvents=1;" vertex="1" parent="bOK-Grzy6zvgatFyXtkg-107">
          <mxGeometry x="415" width="140" height="29" as="geometry">
            <mxRectangle width="140" height="29" as="alternateBounds" />
          </mxGeometry>
        </mxCell>
        <mxCell id="bOK-Grzy6zvgatFyXtkg-112" style="shape=partialRectangle;html=1;whiteSpace=wrap;connectable=0;overflow=hidden;fillColor=none;top=0;left=0;bottom=0;right=0;pointerEvents=1;" vertex="1" parent="bOK-Grzy6zvgatFyXtkg-107">
          <mxGeometry x="555" width="138" height="29" as="geometry">
            <mxRectangle width="138" height="29" as="alternateBounds" />
          </mxGeometry>
        </mxCell>
        <mxCell id="bOK-Grzy6zvgatFyXtkg-113" style="shape=partialRectangle;html=1;whiteSpace=wrap;connectable=0;overflow=hidden;fillColor=none;top=0;left=0;bottom=0;right=0;pointerEvents=1;" vertex="1" parent="bOK-Grzy6zvgatFyXtkg-107">
          <mxGeometry x="693" width="139" height="29" as="geometry">
            <mxRectangle width="139" height="29" as="alternateBounds" />
          </mxGeometry>
        </mxCell>
        <mxCell id="bOK-Grzy6zvgatFyXtkg-114" style="shape=partialRectangle;html=1;whiteSpace=wrap;connectable=0;overflow=hidden;fillColor=none;top=0;left=0;bottom=0;right=0;pointerEvents=1;" vertex="1" parent="bOK-Grzy6zvgatFyXtkg-107">
          <mxGeometry x="832" width="138" height="29" as="geometry">
            <mxRectangle width="138" height="29" as="alternateBounds" />
          </mxGeometry>
        </mxCell>
        <mxCell id="bOK-Grzy6zvgatFyXtkg-115" style="shape=tableRow;horizontal=0;startSize=0;swimlaneHead=0;swimlaneBody=0;top=0;left=0;bottom=0;right=0;collapsible=0;dropTarget=0;fillColor=none;points=[[0,0.5],[1,0.5]];portConstraint=eastwest;" vertex="1" parent="bOK-Grzy6zvgatFyXtkg-10">
          <mxGeometry y="381" width="970" height="29" as="geometry" />
        </mxCell>
        <mxCell id="bOK-Grzy6zvgatFyXtkg-116" value="update_time" style="shape=partialRectangle;html=1;whiteSpace=wrap;connectable=0;overflow=hidden;fillColor=none;top=0;left=0;bottom=0;right=0;pointerEvents=1;fontFamily=Comic Sans MS;fontSize=16;" vertex="1" parent="bOK-Grzy6zvgatFyXtkg-115">
          <mxGeometry width="138" height="29" as="geometry">
            <mxRectangle width="138" height="29" as="alternateBounds" />
          </mxGeometry>
        </mxCell>
        <mxCell id="bOK-Grzy6zvgatFyXtkg-117" value="timestamp" style="shape=partialRectangle;html=1;whiteSpace=wrap;connectable=0;overflow=hidden;fillColor=none;top=0;left=0;bottom=0;right=0;pointerEvents=1;" vertex="1" parent="bOK-Grzy6zvgatFyXtkg-115">
          <mxGeometry x="138" width="139" height="29" as="geometry">
            <mxRectangle width="139" height="29" as="alternateBounds" />
          </mxGeometry>
        </mxCell>
        <mxCell id="bOK-Grzy6zvgatFyXtkg-118" value="0" style="shape=partialRectangle;html=1;whiteSpace=wrap;connectable=0;overflow=hidden;fillColor=none;top=0;left=0;bottom=0;right=0;pointerEvents=1;" vertex="1" parent="bOK-Grzy6zvgatFyXtkg-115">
          <mxGeometry x="277" width="138" height="29" as="geometry">
            <mxRectangle width="138" height="29" as="alternateBounds" />
          </mxGeometry>
        </mxCell>
        <mxCell id="bOK-Grzy6zvgatFyXtkg-119" style="shape=partialRectangle;html=1;whiteSpace=wrap;connectable=0;overflow=hidden;fillColor=none;top=0;left=0;bottom=0;right=0;pointerEvents=1;" vertex="1" parent="bOK-Grzy6zvgatFyXtkg-115">
          <mxGeometry x="415" width="140" height="29" as="geometry">
            <mxRectangle width="140" height="29" as="alternateBounds" />
          </mxGeometry>
        </mxCell>
        <mxCell id="bOK-Grzy6zvgatFyXtkg-120" style="shape=partialRectangle;html=1;whiteSpace=wrap;connectable=0;overflow=hidden;fillColor=none;top=0;left=0;bottom=0;right=0;pointerEvents=1;" vertex="1" parent="bOK-Grzy6zvgatFyXtkg-115">
          <mxGeometry x="555" width="138" height="29" as="geometry">
            <mxRectangle width="138" height="29" as="alternateBounds" />
          </mxGeometry>
        </mxCell>
        <mxCell id="bOK-Grzy6zvgatFyXtkg-121" style="shape=partialRectangle;html=1;whiteSpace=wrap;connectable=0;overflow=hidden;fillColor=none;top=0;left=0;bottom=0;right=0;pointerEvents=1;" vertex="1" parent="bOK-Grzy6zvgatFyXtkg-115">
          <mxGeometry x="693" width="139" height="29" as="geometry">
            <mxRectangle width="139" height="29" as="alternateBounds" />
          </mxGeometry>
        </mxCell>
        <mxCell id="bOK-Grzy6zvgatFyXtkg-122" style="shape=partialRectangle;html=1;whiteSpace=wrap;connectable=0;overflow=hidden;fillColor=none;top=0;left=0;bottom=0;right=0;pointerEvents=1;" vertex="1" parent="bOK-Grzy6zvgatFyXtkg-115">
          <mxGeometry x="832" width="138" height="29" as="geometry">
            <mxRectangle width="138" height="29" as="alternateBounds" />
          </mxGeometry>
        </mxCell>
      </root>
    </mxGraphModel>
  </diagram>
</mxfile>
